<svg width="167" height="33" viewBox="0 0 167 33" fill="none" xmlns="http://www.w3.org/2000/svg">
<path d="M56.4559 29.1673C56.4559 29.7782 56.8295 30.0836 57.5767 30.0836V31H49.7309V30.0836C49.9686 30.0836 50.1809 30.0073 50.3677 29.8545C50.5545 29.7018 50.6479 29.4727 50.6479 29.1673V8.90546H42.2417C41.936 8.90546 41.6388 8.9903 41.3501 9.16C41.0614 9.3297 40.917 9.65212 40.917 10.1273H40V3H40.917C40.917 3.47515 41.0614 3.79758 41.3501 3.96727C41.6388 4.13697 41.936 4.22182 42.2417 4.22182H64.8622C65.1678 4.22182 65.465 4.13697 65.7537 3.96727C66.0424 3.79758 66.1868 3.47515 66.1868 3H67.1038V10.1273H66.1868C66.1868 9.65212 66.0424 9.3297 65.7537 9.16C65.465 8.9903 65.1678 8.90546 64.8622 8.90546H56.4559V29.1673ZM88.4197 20.6145L84.1401 11.1455L79.3511 20.6145H88.4197ZM69.2126 30.0836C69.6542 30.0158 70.0023 29.7952 70.2571 29.4218C70.5118 29.0485 70.758 28.6242 70.9958 28.1491L80.421 8.34546C80.6587 7.90425 80.871 7.49697 81.0578 7.12364C81.2446 6.75031 81.338 6.42788 81.338 6.15636C81.338 5.81697 81.2192 5.5794 80.9814 5.44364C80.7437 5.30788 80.4889 5.20606 80.2172 5.13818V4.22182H88.8273V5.13818C88.5895 5.20606 88.3518 5.2994 88.114 5.41818C87.8762 5.53697 87.7574 5.78303 87.7574 6.15636C87.7574 6.42788 87.8168 6.6994 87.9357 6.97091C88.0546 7.24243 88.2329 7.59879 88.4706 8.04L99.0676 28.76C99.2374 29.1333 99.4667 29.4048 99.7554 29.5745C100.044 29.7442 100.375 29.9139 100.749 30.0836V31H91.7822V30.0836C91.918 30.0836 92.0879 30.0327 92.2917 29.9309C92.4954 29.8291 92.5973 29.6764 92.5973 29.4727C92.5973 29.1333 92.4615 28.6921 92.1898 28.1491L90.2538 24.3818H77.8227L75.9886 27.9964C75.649 28.7091 75.4791 29.2182 75.4791 29.5236C75.4791 29.897 75.8018 30.0836 76.4471 30.0836V31H69.2126V30.0836ZM121.301 16.1345C122.523 16.1345 123.542 16.0412 124.357 15.8545C125.172 15.6679 125.818 15.4048 126.293 15.0655C126.769 14.7261 127.108 14.3273 127.312 13.8691C127.516 13.4109 127.618 12.9103 127.618 12.3673C127.618 11.8242 127.516 11.3236 127.312 10.8655C127.108 10.4073 126.769 10.0085 126.293 9.66909C125.818 9.3297 125.172 9.06667 124.357 8.88C123.542 8.69333 122.523 8.6 121.301 8.6H112.487V16.1345H121.301ZM122.625 4.22182C124.255 4.22182 125.733 4.36606 127.058 4.65455C128.382 4.94303 129.52 5.40121 130.471 6.02909C131.422 6.65697 132.152 7.47152 132.662 8.47273C133.171 9.47394 133.426 10.7042 133.426 12.1636C133.426 14.4036 132.764 16.1176 131.439 17.3055C130.114 18.4933 128.331 19.2909 126.09 19.6982L132.865 29.3709C133.103 29.7103 133.383 29.9139 133.706 29.9818C134.029 30.0497 134.326 30.0836 134.598 30.0836V31H125.071V30.0836C125.376 30.0836 125.639 30.0327 125.86 29.9309C126.081 29.8291 126.191 29.6933 126.191 29.5236C126.191 29.3539 126.123 29.1588 125.988 28.9382C125.852 28.7176 125.648 28.4206 125.376 28.0473L119.772 20.1055H112.487V29.1673C112.487 29.4727 112.597 29.7018 112.818 29.8545C113.039 30.0073 113.438 30.0836 114.015 30.0836V31H105.201V30.0836C106.186 30.0836 106.679 29.7782 106.679 29.1673V6.05455C106.679 5.44364 106.186 5.13818 105.201 5.13818V4.22182H122.625ZM156.352 29.1673C156.352 29.7782 156.726 30.0836 157.473 30.0836V31H149.627V30.0836C149.865 30.0836 150.077 30.0073 150.264 29.8545C150.451 29.7018 150.544 29.4727 150.544 29.1673V8.90546H142.138C141.832 8.90546 141.535 8.9903 141.246 9.16C140.958 9.3297 140.813 9.65212 140.813 10.1273H139.896V3H140.813C140.813 3.47515 140.958 3.79758 141.246 3.96727C141.535 4.13697 141.832 4.22182 142.138 4.22182H164.758C165.064 4.22182 165.361 4.13697 165.65 3.96727C165.939 3.79758 166.083 3.47515 166.083 3H167V10.1273H166.083C166.083 9.65212 165.939 9.3297 165.65 9.16C165.361 8.9903 165.064 8.90546 164.758 8.90546H156.352V29.1673Z" fill="#212121"/>
<path d="M3.45057 22.6374L4.07795 22.9458C4.07795 23.3159 4.1616 23.6449 4.3289 23.9327C4.62167 24.4262 5.19677 24.9093 6.05418 25.3822C6.9116 25.8551 7.89449 26.2766 9.00285 26.6467C10.1112 27.0168 11.2719 27.315 12.4848 27.5411C13.6977 27.7673 14.7852 27.8804 15.7472 27.8804C16.4582 27.8804 17.3783 27.829 18.5076 27.7262C19.6369 27.6234 20.7452 27.4075 21.8327 27.0785C22.9202 26.7495 23.8612 26.2972 24.6559 25.7215C25.4506 25.1458 25.8479 24.385 25.8479 23.4393C25.8479 22.4935 25.4819 21.7944 24.75 21.3421C24.0181 20.8897 23.0561 20.5607 21.8641 20.3551C20.6721 20.1495 19.3127 20.0159 17.7861 19.9542C16.2595 19.8925 14.7015 19.8 13.1122 19.6766C11.5228 19.5533 9.96483 19.3477 8.43821 19.0598C6.9116 18.772 5.55228 18.2888 4.36027 17.6103C3.16825 16.9318 2.20627 16.0065 1.47433 14.8346C0.742395 13.6626 0.376426 12.1308 0.376426 10.2393C0.376426 8.96449 0.679657 7.71028 1.28612 6.47663C1.89259 5.24299 2.82319 4.15327 4.07795 3.20748C5.3327 2.26168 6.92205 1.49065 8.84601 0.894394C10.77 0.29813 13.0285 0 15.6217 0C17.8384 0 19.7624 0.164482 21.3935 0.493454C23.0247 0.82243 24.4363 1.17196 25.6283 1.54205C26.8203 1.91215 27.8241 2.26168 28.6397 2.59065C29.4553 2.91962 30.135 3.08411 30.6787 3.08411C31.2643 3.08411 31.6825 2.96075 31.9335 2.71402L32.6863 3.20748L28.3574 10.9178L27.73 10.671C27.6464 10.0953 27.4791 9.62243 27.2281 9.25234C26.8935 8.75888 26.3394 8.2757 25.5656 7.8028C24.7918 7.32991 23.8821 6.90841 22.8365 6.53832C21.7909 6.16822 20.6616 5.87009 19.4487 5.64392C18.2357 5.41776 17.0228 5.30467 15.8099 5.30467C14.8897 5.30467 13.9382 5.37663 12.9553 5.52056C11.9724 5.66448 11.0836 5.88037 10.289 6.16822C9.4943 6.45607 8.83555 6.83645 8.31274 7.30935C7.78992 7.78224 7.52852 8.36822 7.52852 9.06729C7.52852 10.0542 7.89449 10.7944 8.62642 11.2879C9.35836 11.7813 10.3203 12.1514 11.5124 12.3981C12.7044 12.6449 14.0637 12.8093 15.5903 12.8916C17.1169 12.9738 18.6749 13.0766 20.2643 13.2C21.8536 13.3234 23.4116 13.5393 24.9382 13.8477C26.4648 14.1561 27.8241 14.6495 29.0162 15.328C30.2082 16.0065 31.1702 16.9215 31.9021 18.0729C32.634 19.2243 33 20.7252 33 22.5757C33 24.714 32.4249 26.4617 31.2747 27.8187C30.1245 29.1757 28.692 30.2449 26.9772 31.0262C25.2624 31.8075 23.4116 32.3318 21.4249 32.5991C19.4382 32.8664 17.5875 33 15.8726 33C13.4886 33 11.4914 32.8664 9.88118 32.5991C8.27091 32.3318 6.93251 32.0028 5.86597 31.6122C4.79943 31.2215 3.95247 30.872 3.3251 30.5636C2.69772 30.2551 2.15399 30.1009 1.69392 30.1009C1.40114 30.1009 1.12928 30.2654 0.878327 30.5944L0 30.1009L3.45057 22.6374Z" fill="#DD1B57"/>
</svg>
